Coordinates
version=1
nRows=60
nColumns=12
inDegrees=yes

Units are S.I. units (second, meters, Newtons, ...)
Angles are in degrees

endheader
time	SC_y	SC_z	SC_x	AC_y	AC_z	AC_x	GH_y	GH_z	GH_yy	EL_x	PS_y
       0.0              -12.06          15.12          19.47          61.23          3.966          10.19         -147.4          11.29         -7.748          74.02          28.21
    0.0149              -12.06          15.12          19.48          61.22          3.966          10.19         -147.4           11.3         -7.765          74.03          28.22
    0.0298              -12.06          15.12          19.48          61.22          3.967          10.19         -147.4           11.3         -7.784          74.04          28.23
   0.04471              -12.06          15.12          19.49          61.22          3.968          10.19         -147.4          11.31         -7.803          74.05          28.23
   0.05961              -12.06          15.12          19.49          61.22          3.969          10.18         -147.3          11.32         -7.824          74.06          28.24
   0.07451              -12.06          15.12           19.5          61.22           3.97          10.18         -147.3          11.32         -7.846          74.08          28.25
   0.08941              -12.07          15.12           19.5          61.21          3.971          10.18         -147.3          11.33          -7.87          74.09          28.26
    0.1043              -12.07          15.12          19.51          61.21          3.972          10.18         -147.3          11.34         -7.896           74.1          28.28
    0.1192              -12.07          15.12          19.52          61.21          3.974          10.17         -147.2          11.35         -7.923          74.11          28.29
    0.1341              -12.07          15.12          19.52           61.2          3.975          10.17         -147.2          11.36         -7.952          74.13           28.3
     0.149              -12.07          15.12          19.53           61.2          3.977          10.17         -147.2          11.37         -7.983          74.15          28.32
    0.1639              -12.07          15.12          19.54          61.19          3.978          10.16         -147.2          11.38         -8.017          74.16          28.33
    0.1788              -12.07          15.13          19.55          61.19           3.98          10.16         -147.1          11.39         -8.053          74.18          28.35
    0.1937              -12.08          15.13          19.56          61.19          3.982          10.15         -147.1          11.41         -8.093           74.2          28.37
    0.2086              -12.08          15.13          19.57          61.18          3.984          10.15         -147.1          11.42         -8.135          74.22          28.38
    0.2235              -12.08          15.13          19.58          61.17          3.986          10.14         -147.0          11.44         -8.181          74.25           28.4
    0.2384              -12.08          15.13          19.59          61.17          3.988          10.14         -147.0          11.45         -8.231          74.27          28.43
    0.2533              -12.09          15.13          19.61          61.16          3.991          10.13         -146.9          11.47         -8.286           74.3          28.45
    0.2682              -12.09          15.13          19.62          61.16          3.994          10.13         -146.9          11.49         -8.345          74.33          28.48
    0.2831              -12.09          15.14          19.64          61.15          3.997          10.12         -146.8          11.51         -8.411          74.37          28.51
     0.298               -12.1          15.14          19.66          61.14            4.0          10.11         -146.7          11.54         -8.482          74.41          28.54
    0.3129               -12.1          15.14          19.68          61.13          4.004           10.1         -146.7          11.56         -8.561          74.45          28.58
    0.3278               -12.1          15.14           19.7          61.12          4.008          10.09         -146.6          11.59         -8.648          74.49          28.62
    0.3427              -12.11          15.15          19.72          61.11          4.012          10.08         -146.5          11.62         -8.745          74.54          28.66
    0.3576              -12.11          15.15          19.75          61.09          4.017          10.07         -146.4          11.66         -8.852           74.6          28.71
    0.3725              -12.12          15.15          19.78          61.08          4.023          10.06         -146.3           11.7         -8.972          74.66          28.76
    0.3874              -12.13          15.16          19.82          61.06          4.029          10.04         -146.2          11.74         -9.106          74.73          28.82
    0.4024              -12.13          15.16          19.85          61.05          4.036          10.02         -146.0          11.79         -9.257          74.81          28.89
    0.4173              -12.14          15.17           19.9          61.03          4.044           10.0         -145.9          11.85         -9.427           74.9          28.97
    0.4322              -12.15          15.17          19.95           61.0          4.053          9.982         -145.7          11.91         -9.621           75.0          29.05
    0.4471              -12.16          15.18           20.0          60.98          4.064          9.957         -145.5          11.99         -9.841          75.11          29.15
     0.462              -12.17          15.19          20.07          60.95          4.075          9.929         -145.3          12.07         -10.09          75.24          29.27
    0.4769              -12.19           15.2          20.14          60.91          4.089          9.896         -145.0          12.17         -10.39          75.39           29.4
    0.4918              -12.21          15.21          20.23          60.87          4.105          9.857         -144.7          12.28         -10.73          75.57          29.55
    0.5067              -12.23          15.22          20.33          60.82          4.124          9.812         -144.3          12.41         -11.13          75.78          29.73
    0.5216              -12.25          15.24          20.45          60.77          4.146          9.759         -143.9          12.57         -11.59          76.02          29.94
    0.5365              -12.28          15.25          20.59           60.7          4.172          9.697         -143.4          12.75         -12.15          76.31          30.19
    0.5514              -12.31          15.27          20.76          60.62          4.203          9.621         -142.8          12.97         -12.82          76.66          30.49
    0.5663              -12.35           15.3          20.96          60.52          4.241           9.53         -142.0          13.24         -13.63          77.08          30.86
    0.5812               -12.4          15.33          21.21           60.4          4.287          9.419         -141.1          13.57         -14.62          77.59           31.3
    0.5961              -12.46          15.37          21.52          60.26          4.344          9.281         -140.0          13.97         -15.83          78.22          31.85
     0.611              -12.53          15.41          21.91          60.08          4.415           9.11         -138.6          14.48         -17.35          79.01          32.54
    0.6259              -12.63          15.47          22.39          59.85          4.505          8.893         -136.9          15.11         -19.27           80.0           33.4
    0.6408              -12.74          15.55          23.01          59.56          4.618          8.619         -134.7          15.92          -21.7          81.26          34.49
    0.6557               -12.9          15.65           23.8          59.18          4.764          8.267         -131.8          16.95         -24.82          82.88           35.9
    0.6706              -13.09          15.77          24.82           58.7          4.951          7.816         -128.1          18.27         -28.81          84.95           37.7
    0.6855              -13.35          15.93          26.11          58.09           5.19           7.24         -123.5          19.96         -33.92           87.6          39.99
    0.7004              -13.66          16.13          27.74          57.32           5.49          6.516         -117.6          22.09         -40.34          90.93          42.89
    0.7153              -14.05          16.37          29.72          56.39          5.857          5.633         -110.5          24.68         -48.16          94.99          46.41
    0.7302              -14.49          16.65          32.02           55.3          6.281          4.609         -102.2          27.69         -57.23           99.7          50.49
    0.7451              -14.97          16.96          34.51          54.13           6.74          3.501         -93.19          30.94         -67.05          104.8          54.91
      0.76              -15.46          17.26           37.0          52.95            7.2          2.393         -84.21           34.2         -76.87          109.9          59.33
    0.7749               -15.9          17.54           39.3          51.87          7.624           1.37         -75.92           37.2         -85.94          114.6          63.42
    0.7898              -16.29          17.79          41.29          50.93           7.99         0.4871         -68.77          39.79         -93.77          118.7          66.94
    0.8047               -16.6          17.99          42.92          50.16           8.29        -0.2374          -62.9          41.92         -100.2          122.0          69.83
    0.8196              -16.85          18.14          44.21          49.55          8.529        -0.8135         -58.23          43.61         -105.3          124.6          72.13
    0.8345              -17.05          18.27          45.23          49.07          8.716         -1.265         -54.58          44.94         -109.3          126.7          73.93
    0.8494               -17.2          18.37          46.02           48.7          8.862         -1.616         -51.73          45.97         -112.4          128.3          75.33
    0.8643              -17.32          18.44          46.63          48.41          8.976         -1.891          -49.5          46.78         -114.8          129.6          76.43
    0.8792              -17.42           18.5          47.12          48.18          9.066         -2.107         -47.75          47.41         -116.8          130.6          77.29
